:SAMPLES-PER-SECOND 30
:FULLY-SPECIFIED
:DEGREES
465
root  -5.80967 40.8883 -0.140634 3.50912 -86.5654 0.21568
RightUpLeg  6.58084 -2.42069 -1.93236
RightLeg  -5.18698 -22.9448 2.67399
RightFoot  -1.23382 -0.424218 4.69797
RightToes  -3.10096e-008 1.75238e-005 3.56266e-009
Spine  -1.81905 -0.705788 -5.64096
Spine1  -2.76643 -1.30466 5.89002
HEad  -31.1199 -0.299702 0.551204
LeftShoulder1  0.022941 3.35884 -7.88036
LeftArm  -78.9689 23.2209 -8.84485
LeftForeArm  -28.8952 -50.6709 -15.5793
LeftHand  -0.310221 -1.39657 5.46188
RightShoulder  -0.29197 -5.57857 6.16052
RightArm  -74.0459 -4.86428 0.484501
RightForeArm  -51.0356 39.5614 11.5025
RightHand  -0.169458 1.80508 -2.83762
LeftUpLeg  3.98285 0.895445 2.31188
LeftLeg  -4.46363 9.48968 -0.888742
LeftFoot  -1.2865 0.151006 -1.41715
LeftToes  4.7633e-008 1.48299e-008 1.30754e-009
466
root  -5.93939 40.8635 -0.13092 3.26841 -87.1291 0.34116
RightUpLeg  7.00055 -2.4355 -1.97986
RightLeg  -5.48975 -22.4657 2.71353
RightFoot  -1.39793 -0.413501 4.64054
RightToes  -3.10096e-008 1.75238e-005 3.56266e-009
Spine  -2.98057 -0.587632 -5.96412
Spine1  -1.50554 -1.28903 6.52153
HEad  -31.0909 -0.126386 -0.255193
LeftShoulder1  0.0034467 3.48664 -8.72451
LeftArm  -73.6107 30.1047 -13.0305
LeftForeArm  -25.9486 -54.1127 -17.4927
LeftHand  -0.234277 -1.52043 4.09274
RightShoulder  -0.356321 -5.92263 6.9512
RightArm  -72.9855 -6.97283 1.73679
RightForeArm  -51.6678 40.2189 11.7508
RightHand  -0.285901 2.68389 -4.33383
LeftUpLeg  4.31354 0.968684 2.26454
LeftLeg  -4.27898 9.9615 -0.900243
LeftFoot  -1.66437 0.144517 -1.3131
LeftToes  4.7633e-008 1.48299e-008 1.30754e-009
467
root  -6.04594 40.8456 -0.0907092 1.97647 -87.8724 1.31935
RightUpLeg  7.39998 -2.51518 -2.15416
RightLeg  -5.38171 -21.6393 2.50223
RightFoot  -1.56821 -0.417206 4.75087
RightToes  -3.10096e-008 1.75238e-005 3.56266e-009
Spine  -4.43533 -0.344861 -5.15492
Spine1  0.00732034 -0.960781 5.64792
HEad  -29.4371 -0.117731 -0.367904
LeftShoulder1  0.0687672 3.1082 -10.0891
LeftArm  -70.8727 33.1113 -15.8231
LeftForeArm  -25.9265 -57.3411 -19.7991
LeftHand  -0.223765 -1.5181 3.91069
RightShoulder  -0.257683 -5.21675 7.26767
RightArm  -73.017 -8.2797 2.70834
RightForeArm  -53.5211 40.199 11.7794
RightHand  -0.226155 1.67988 -3.87197
LeftUpLeg  5.06323 1.0134 2.1277
LeftLeg  -4.52602 10.6296 -1.02658
LeftFoot  -1.86066 0.138686 -1.22658
LeftToes  4.7633e-008 1.48299e-008 1.30754e-009
468
root  -6.13968 40.8433 -0.0473858 -1.00093 -88.1316 3.76672
RightUpLeg  8.06276 -2.7232 -2.39131
RightLeg  -5.27049 -21.1288 2.38808
RightFoot  -1.59852 -0.428541 4.89654
RightToes  -3.10096e-008 1.75238e-005 3.56266e-009
Spine  -5.91054 -0.301656 -2.99611
Spine1  1.7831 -0.570197 2.7684
HEad  -27.276 0.833914 0.010197
LeftShoulder1  0.138494 2.74237 -10.9147
LeftArm  -70.6015 32.2934 -17.6879
LeftForeArm  -26.4153 -59.6864 -21.8248
LeftHand  -0.274679 -2.27496 4.36442
RightShoulder  -0.190969 -4.68009 8.47924
RightArm  -73.8659 -7.39498 2.85366
RightForeArm  -55.222 40.1066 11.7753
RightHand  -0.267427 2.04721 -4.3564
LeftUpLeg  5.80488 1.0877 2.00904
LeftLeg  -4.47929 10.8423 -1.0844
LeftFoot  -2.03056 0.146036 -1.35372
LeftToes  4.7633e-008 1.48299e-008 1.30754e-009
469
root  -6.18852 40.8613 -0.00859317 -8.41622 -88.3769 10.6562
RightUpLeg  8.36662 -2.93837 -2.73844
RightLeg  -4.58086 -20.5531 1.99902
RightFoot  -1.63686 -0.454253 5.21492
RightToes  -3.10096e-008 1.75238e-005 3.56266e-009
Spine  -7.31536 -0.178271 -1.48224
Spine1  3.36858 -0.191207 0.833092
HEad  -24.0237 1.73372 -0.464279
LeftShoulder1  0.241616 2.23067 -11.8005
LeftArm  -71.2035 29.4399 -18.8045
LeftForeArm  -26.1022 -60.9595 -23.0438
LeftHand  -0.27746 -2.21511 4.43295
RightShoulder  -0.0370064 -3.71096 9.01466
RightArm  -73.7774 -5.95818 2.59751
RightForeArm  -54.7872 40.9938 12.0917
RightHand  -0.284664 2.21913 -4.53318
LeftUpLeg  6.54416 1.08785 1.78673
LeftLeg  -4.61489 11.0871 -1.18839
LeftFoot  -1.84754 0.162106 -1.62671
LeftToes  4.7633e-008 1.48299e-008 1.30754e-009
470
root  -6.22325 40.8952 0.0375133 -13.318 -88.4865 14.9964
RightUpLeg  8.8341 -3.14507 -3.04212
RightLeg  -4.18693 -20.063 1.79377
RightFoot  -1.46672 -0.502836 5.69764
RightToes  -3.10096e-008 1.75238e-005 3.56266e-009
Spine  -8.67744 -0.168012 -0.345895
Spine1  4.92779 -0.027281 -0.411639
HEad  -20.626 1.37719 -0.634551
LeftShoulder1  0.365541 1.62015 -12.3015
LeftArm  -71.6167 26.3051 -19.4153
LeftForeArm  -24.3362 -62.0444 -24.0858
LeftHand  -0.293321 -2.6586 4.45138
RightShoulder  0.0880896 -2.95669 9.30569
RightArm  -72.5589 -3.67694 2.31385
RightForeArm  -53.1499 43.1176 12.8846
RightHand  -0.31854 2.80937 -4.73035
LeftUpLeg  7.21003 1.13673 1.66291
LeftLeg  -4.61255 11.1312 -1.22976
LeftFoot  -1.59784 0.162475 -1.66743
LeftToes  4.7633e-008 1.48299e-008 1.30754e-009
471
root  -6.24381 40.9316 0.0806176 -12.4242 -88.5686 13.5421
RightUpLeg  9.39377 -3.31078 -3.17616
RightLeg  -4.08337 -19.7926 1.75975
RightFoot  -1.0855 -0.557274 6.12101
RightToes  -3.10096e-008 1.75238e-005 3.56266e-009
Spine  -9.94547 -0.201745 0.802623
Spine1  6.71803 0.0271311 -1.34569
HEad  -18.838 1.07866 -2.0354
LeftShoulder1  0.43438 1.29646 -12.5865
LeftArm  -72.0008 22.9372 -20.9338
LeftForeArm  -18.8986 -63.8965 -25.8837
LeftHand  -0.253559 -2.60273 3.89059
RightShoulder  0.156988 -2.538 9.11681
RightArm  -71.1205 -1.20418 3.23547
RightForeArm  -48.2775 46.9233 14.433
RightHand  -0.392764 4.19325 -5.0285
LeftUpLeg  7.78867 1.17259 1.6435
LeftLeg  -4.49735 11.1878 -1.14411
LeftFoot  -1.4557 0.165568 -1.76382
LeftToes  4.7633e-008 1.48299e-008 1.30754e-009
472
root  -6.22604 40.9418 0.113894 -14.0763 -88.7226 14.6244
RightUpLeg  9.65315 -3.45763 -3.33522
RightLeg  -3.39678 -19.3219 1.47133
RightFoot  -1.10419 -0.593204 6.53242
RightToes  -3.10096e-008 1.75238e-005 3.56266e-009
Spine  -10.9567 -0.164811 1.17334
Spine1  8.27484 0.0650181 -1.43205
HEad  -17.8765 1.04412 -2.49395
LeftShoulder1  0.521633 0.904844 -13.0282
LeftArm  -71.1129 19.6274 -22.6751
LeftForeArm  -12.465 -66.2312 -28.6452
LeftHand  -0.208172 -2.47924 3.27091
RightShoulder  0.254924 -1.9631 9.36693
RightArm  -69.7826 1.06602 4.46012
RightForeArm  -42.5143 51.9117 16.8856
RightHand  -0.425993 4.49305 -5.28942
LeftUpLeg  8.31593 1.15451 1.54204
LeftLeg  -4.35403 11.5287 -1.07193
LeftFoot  -1.5082 0.163662 -1.79729
LeftToes  4.7633e-008 1.48299e-008 1.30754e-009
473
root  -6.18684 40.9045 0.15562 -11.9269 -88.9843 11.8803
RightUpLeg  9.81641 -3.62531 -3.43209
RightLeg  -2.47639 -18.6679 1.15985
RightFoot  -1.59677 -0.591379 6.80069
RightToes  -3.10096e-008 1.75238e-005 3.56266e-009
Spine  -11.602 -0.0247789 1.78291
Spine1  9.45122 0.219145 -1.6688
HEad  -16.6891 1.21344 -3.32037
LeftShoulder1  0.598918 0.573723 -13.4495
LeftArm  -69.2764 16.3329 -25.2536
LeftForeArm  -5.46264 -68.9629 -32.8426
LeftHand  -0.297851 -2.67094 4.51677
RightShoulder  0.370304 -1.38696 10.2436
RightArm  -67.5887 3.06525 5.9127
RightForeArm  -33.8671 57.2295 20.1509
RightHand  -0.503536 5.3867 -5.70797
LeftUpLeg  8.78041 1.15598 1.47904
LeftLeg  -3.97904 11.9848 -0.9313
LeftFoot  -2.14256 0.142761 -1.60929
LeftToes  4.7633e-008 1.48299e-008 1.30754e-009
474
root  -6.14894 40.8419 0.209451 3.81536 -89.3348 -4.54291
RightUpLeg  10.3245 -3.75669 -3.44817
RightLeg  -2.11024 -18.1175 1.09859
RightFoot  -2.07928 -0.564784 6.78751
RightToes  -3.10096e-008 1.75238e-005 3.56266e-009
Spine  -12.095 0.0994334 2.45398
Spine1  10.3072 0.359305 -2.02286
HEad  -15.3475 1.33259 -3.80257
LeftShoulder1  0.734795 0.0415558 -14.2622
LeftArm  -65.8473 13.3044 -27.5908
LeftForeArm  3.73909 -71.3976 -37.535
LeftHand  -0.356324 -2.46607 5.46904
RightShoulder  0.635514 -0.159487 12.0097
RightArm  -64.9388 4.82787 7.10505
RightForeArm  -23.9805 62.0845 24.145
RightHand  -0.586886 6.09103 -6.18942
LeftUpLeg  9.29982 1.22923 1.49985
LeftLeg  -3.47594 12.4946 -0.775551
LeftFoot  -3.01049 0.109352 -1.25612
LeftToes  4.7633e-008 1.48299e-008 1.30754e-009
475
root  -6.11613 40.8015 0.26898 -1.447 -90 0
RightUpLeg  11.18 -3.83857 -3.63076
RightLeg  -2.48316 -17.1347 1.14575
RightFoot  -2.31781 -0.534131 6.56124
RightToes  -3.10096e-008 1.75238e-005 3.56266e-009
Spine  -13.4794 0.333363 2.75536
Spine1  12.8167 0.521795 -1.98758
HEad  -15.151 1.6182 -4.45831
LeftShoulder1  0.993145 -0.774833 -16.4653
LeftArm  -61.5684 9.47074 -28.7298
LeftForeArm  14.2547 -73.3746 -42.2755
LeftHand  -0.449889 -2.26849 7.02359
RightShoulder  0.862846 0.736921 13.4649
RightArm  -61.4123 6.62171 8.7164
RightForeArm  -16.0428 66.4178 29.2966
RightHand  -0.344637 4.63313 -4.29672
LeftUpLeg  10.164 1.3171 1.37622
LeftLeg  -3.50426 13.1841 -0.751102
LeftFoot  -3.3915 0.106298 -1.23657
LeftToes  4.7633e-008 1.48299e-008 1.30754e-009
476
root  -6.10941 40.7738 0.315564 173.653 -89.2424 -175.834
RightUpLeg  12.009 -4.06736 -3.94822
RightLeg  -2.70489 -16.1952 1.20555
RightFoot  -2.55359 -0.514287 6.458
RightToes  -3.10096e-008 1.75238e-005 3.56266e-009
Spine  -15.1901 0.323493 2.66776
Spine1  15.776 0.481422 -1.86341
HEad  -14.7885 1.71335 -5.28186
LeftShoulder1  1.25059 -1.51312 -18.3751
LeftArm  -56.8099 5.04804 -29.9907
LeftForeArm  24.1904 -74.7966 -46.1681
LeftHand  -0.387839 -2.11199 6.19692
RightShoulder  1.13563 1.57646 15.6147
RightArm  -57.0092 9.2012 10.0013
RightForeArm  -9.26925 69.435 34.3109
RightHand  -0.482008 6.07273 -5.20516
LeftUpLeg  11.2063 1.58859 1.37863
LeftLeg  -3.78057 13.5097 -1.00699
LeftFoot  -3.59195 0.104078 -1.21562
LeftToes  4.7633e-008 1.48299e-008 1.30754e-009
477
root  -6.10463 40.7563 0.3588 176.411 -88.8087 -179.001
RightUpLeg  12.3379 -4.2361 -4.14551
RightLeg  -2.58245 -15.6552 1.20669
RightFoot  -2.73852 -0.492938 6.29885
RightToes  -3.10096e-008 1.75238e-005 3.56266e-009
Spine  -16.4999 -0.00867047 1.70388
Spine1  17.2929 -0.104137 -0.684689
HEad  -14.0001 2.20901 -5.89316
LeftShoulder1  1.53519 -2.38723 -19.5147
LeftArm  -51.8331 -0.534876 -31.6074
LeftForeArm  32.5082 -75.0978 -45.2255
LeftHand  -0.334199 -2.77347 4.99174
RightShoulder  1.47502 2.72232 17.142
RightArm  -52.61 12.1447 10.7379
RightForeArm  -3.39497 70.7704 36.9116
RightHand  -0.50993 6.49383 -5.31128
LeftUpLeg  11.5913 1.82801 1.44263
LeftLeg  -3.51723 13.5573 -1.12133
LeftFoot  -3.82359 0.0999322 -1.1641
LeftToes  4.7633e-008 1.48299e-008 1.30754e-009
478
root  -6.07824 40.7604 0.422508 167.663 -88.8813 -170.627
RightUpLeg  12.6802 -4.32962 -4.18105
RightLeg  -2.52208 -15.5414 1.24454
RightFoot  -2.53906 -0.513631 6.43993
RightToes  -3.10096e-008 1.75238e-005 3.56266e-009
Spine  -16.6597 -0.605942 0.775846
Spine1  17.3531 -1.01042 0.640992
HEad  -12.6719 3.0113 -6.4005
LeftShoulder1  2.09507 -4.10964 -21.149
LeftArm  -47.6533 -7.51712 -30.177
LeftForeArm  36.2465 -74.7556 -42.3936
LeftHand  -0.393173 -4.19048 5.02845
RightShoulder  1.54316 3.02248 17.0581
RightArm  -49.331 15.1632 11.5514
RightForeArm  0.251328 71.529 38.5371
RightHand  -0.345424 6.63505 -3.67467
LeftUpLeg  11.7468 1.99233 1.59651
LeftLeg  -3.10537 13.2678 -1.07226
LeftFoot  -3.97768 0.0923573 -1.05864
LeftToes  4.7633e-008 1.48299e-008 1.30754e-009
479
root  -6.02436 40.7872 0.499163 153.708 -89.0665 -156.86
RightUpLeg  12.7127 -4.33165 -4.12629
RightLeg  -2.31577 -15.6837 1.21753
RightFoot  -2.18117 -0.558214 6.77361
RightToes  -3.10096e-008 1.75238e-005 3.56266e-009
Spine  -15.9699 -1.16114 0.477107
Spine1  16.2078 -1.65181 1.01847
HEad  -11.4421 3.20663 -7.10556
LeftShoulder1  2.44147 -5.36036 -21.1864
LeftArm  -44.5647 -16.8 -27.8968
LeftForeArm  36.1096 -73.4718 -37.2032
LeftHand  -0.512188 -5.03453 6.00702
RightShoulder  1.62828 3.44718 16.8128
RightArm  -48.814 17.7488 10.6787
RightForeArm  4.8978 72.1316 39.6698
RightHand  -0.153738 7.00052 -1.79416
LeftUpLeg  11.8526 2.11654 1.78249
LeftLeg  -3.1251 12.8688 -1.1051
LeftFoot  -3.88326 0.0928345 -1.07769
LeftToes  4.7633e-008 1.48299e-008 1.30754e-009
